<?xml version="1.0" encoding="UTF-8"?>
<svg id="Layer_1" data-name="Layer 1" xmlns="http://www.w3.org/2000/svg" viewBox="0 0 998.34 207.48">
  <g>
    <path d="M291.25,204.98h-24.11l54.18-150.56h26.25l54.18,150.56h-24.11l-42.57-123.22h-1.18l-42.64,123.22ZM295.3,146.02h78.22v19.11h-78.22v-19.11Z" fill="#2a2f36"/>
    <path d="M435.46,92.05l24.92,43.96,25.14-43.96h24.04l-35.22,56.46,35.51,56.46h-24.04l-25.44-42.2-25.36,42.2h-24.11l35.14-56.46-34.7-56.46h24.11Z" fill="#2a2f36"/>
    <path d="M603,119.62l-19.92,3.53c-.83-2.55-2.14-4.97-3.93-7.28-1.79-2.3-4.2-4.19-7.24-5.66s-6.84-2.21-11.39-2.21c-6.22,0-11.42,1.39-15.59,4.15-4.17,2.77-6.25,6.33-6.25,10.7,0,3.77,1.4,6.81,4.19,9.12,2.79,2.3,7.3,4.19,13.53,5.66l17.94,4.12c10.39,2.4,18.13,6.1,23.23,11.1s7.65,11.49,7.65,19.48c0,6.76-1.95,12.78-5.85,18.05-3.9,5.27-9.31,9.4-16.25,12.39-6.94,2.99-14.96,4.48-24.08,4.48-12.64,0-22.96-2.71-30.95-8.12-7.99-5.42-12.89-13.12-14.7-23.12l21.25-3.23c1.32,5.54,4.04,9.72,8.16,12.53,4.12,2.82,9.48,4.23,16.1,4.23,7.21,0,12.96-1.51,17.28-4.52s6.47-6.7,6.47-11.06c0-3.53-1.31-6.49-3.93-8.9-2.62-2.4-6.63-4.21-12.02-5.44l-19.12-4.19c-10.54-2.4-18.32-6.22-23.34-11.47-5.02-5.24-7.54-11.88-7.54-19.92,0-6.67,1.86-12.5,5.59-17.5,3.72-5,8.87-8.91,15.44-11.73,6.57-2.82,14.09-4.23,22.57-4.23,12.2,0,21.81,2.64,28.82,7.9,7.01,5.27,11.64,12.31,13.89,21.14Z" fill="#2a2f36"/>
    <path d="M691.93,158.15v-66.09h22.06v112.92h-21.61v-19.56h-1.18c-2.6,6.03-6.75,11.04-12.46,15.03-5.71,4-12.8,5.99-21.28,5.99-7.25,0-13.66-1.6-19.22-4.82-5.56-3.21-9.92-7.98-13.09-14.3-3.16-6.32-4.74-14.14-4.74-23.45v-71.83h21.98v69.18c0,7.7,2.13,13.82,6.4,18.38,4.26,4.56,9.8,6.84,16.61,6.84,4.12,0,8.22-1.03,12.31-3.09,4.09-2.06,7.5-5.17,10.22-9.34,2.72-4.17,4.06-9.46,4.01-15.88Z" fill="#2a2f36"/>
    <path d="M735.74,204.98v-112.92h21.1v18.38h1.4c2.35-6.22,6.2-11.09,11.54-14.59,5.34-3.5,11.74-5.26,19.19-5.26s13.88,1.76,19,5.29c5.12,3.53,8.91,8.38,11.36,14.56h1.18c2.69-6.03,6.98-10.84,12.87-14.45,5.88-3.6,12.89-5.4,21.03-5.4,10.24,0,18.61,3.21,25.11,9.63,6.49,6.42,9.74,16.1,9.74,29.04v75.72h-21.98v-73.66c0-7.65-2.08-13.18-6.25-16.62-4.17-3.43-9.14-5.15-14.92-5.15-7.16,0-12.72,2.19-16.69,6.58-3.97,4.39-5.96,10.01-5.96,16.87v71.97h-21.91v-75.06c0-6.13-1.91-11.05-5.73-14.78-3.82-3.72-8.8-5.59-14.92-5.59-4.17,0-8,1.09-11.51,3.27-3.5,2.18-6.32,5.21-8.45,9.08-2.13,3.87-3.2,8.36-3.2,13.45v69.62h-21.98Z" fill="#2a2f36"/>
    <path d="M942.61,207.48c-7.16,0-13.63-1.34-19.41-4.01-5.78-2.67-10.35-6.55-13.71-11.65-3.36-5.1-5.04-11.35-5.04-18.75,0-6.37,1.22-11.62,3.68-15.73,2.45-4.12,5.76-7.38,9.93-9.78,4.17-2.4,8.82-4.21,13.97-5.44,5.15-1.22,10.39-2.16,15.73-2.79,6.76-.78,12.25-1.43,16.47-1.95,4.21-.51,7.28-1.36,9.19-2.54s2.87-3.09,2.87-5.73v-.51c0-6.42-1.8-11.4-5.4-14.92s-8.96-5.29-16.06-5.29-13.22,1.63-17.46,4.89c-4.24,3.26-7.17,6.87-8.79,10.84l-20.66-4.71c2.45-6.86,6.04-12.41,10.77-16.65,4.73-4.24,10.18-7.33,16.36-9.26,6.17-1.94,12.67-2.9,19.48-2.9,4.51,0,9.3.53,14.37,1.58,5.07,1.05,9.83,2.98,14.26,5.77,4.43,2.79,8.07,6.78,10.92,11.95,2.84,5.17,4.26,11.87,4.26,20.11v74.99h-21.47v-15.44h-.88c-1.42,2.84-3.55,5.64-6.4,8.38-2.84,2.75-6.49,5.02-10.95,6.84-4.46,1.81-9.8,2.72-16.03,2.72ZM947.39,189.83c6.08,0,11.29-1.2,15.62-3.6,4.34-2.4,7.65-5.55,9.92-9.45,2.28-3.9,3.42-8.07,3.42-12.53v-14.56c-.78.78-2.29,1.51-4.52,2.17-2.23.66-4.77,1.23-7.61,1.69-2.84.47-5.61.88-8.31,1.25-2.7.37-4.95.67-6.76.92-4.26.54-8.15,1.45-11.65,2.72-3.5,1.27-6.3,3.1-8.38,5.48-2.08,2.38-3.12,5.53-3.12,9.45,0,5.44,2.01,9.55,6.03,12.31,4.02,2.77,9.14,4.15,15.37,4.15Z" fill="#2a2f36"/>
  </g>
  <g>
    <polygon points="31.77 204.72 0 204.67 74.22 35.59 81.8 90.94 31.77 204.72" fill="#2a2f36"/>
    <polygon points="158.57 204.98 108.35 90.9 115.66 35.67 190.15 204.75 158.57 204.98" fill="#2a2f36"/>
    <path d="M81.83,204.9l4.45-69.63,7.83-126.13c.22-3.51.5-6.12,1.24-9.14l.9,12.84,11.89,191.9-26.3.16Z" fill="#00594a"/>
  </g>
</svg>