<svg xmlns="http://www.w3.org/2000/svg" viewBox="200 0 300 220" width="512" height="512">
  <rect width="700" height="400" fill="#1a472a" x="0" y="-50" rx="60"/>
  <g transform="translate(342, 10) scale(1.05)">
    <path d="M -18 20 L -102 186 L -67 186 C -59 170 -49 150 -40 130 C -30 110 -20 90 -11 70 C -9 60 -9 50 -12 40 C -14 30 -16 25 -18 20 Z" fill="#fff"/>
    <path d="M 19 20 L 103 186 L 67 186 C 59 170 49 150 40 130 C 30 110 20 90 12 70 C 10 60 10 50 13 40 C 15 30 17 25 19 20 Z" fill="#fff"/>
    <path d="M 0 14 C -2 50 -5 100 -5 135 C -5 155 -3 172 0 183 C 3 172 5 155 5 135 C 5 100 2 50 0 14 Z" fill="#228B37"/>
  </g>
</svg>